HIERARCHY
ROOT root     
{
	OFFSET 0.0000 0.0000 0.0000
	CHANNELS 6 Xposition Yposition Zposition Zrotation Yrotation Xrotation
	JOINT pelvis   
	{
		OFFSET 0.0000 0.0000 0.0000
		CHANNELS 3 Zrotation Yrotation Xrotation
		JOINT thorax   
		{
			OFFSET 0.0000 23.0750 -5.0000
			CHANNELS 3 Zrotation Yrotation Xrotation
			JOINT rclavicle
			{
				OFFSET 0.0000 28.0009 0.0000
				CHANNELS 3 Zrotation Yrotation Xrotation
				JOINT rhumerus 
				{
					OFFSET -18.5725 5.5939 0.0000
					CHANNELS 3 Zrotation Yrotation Xrotation
					JOINT rradius  
					{
						OFFSET -24.8459 0.0000 0.0000
						CHANNELS 3 Zrotation Yrotation Xrotation
						JOINT rhand    
						{
							OFFSET -24.5477 0.0000 0.0000
							CHANNELS 3 Zrotation Yrotation Xrotation
							End Site
							{
								OFFSET -8.1826 0.0000 0.0000
							}
						}
					}
				}
			}
			JOINT lclavicle
			{
				OFFSET 0.0000 28.0009 0.0000
				CHANNELS 3 Zrotation Yrotation Xrotation
				JOINT lhumerus 
				{
					OFFSET 18.5725 5.5939 0.0000
					CHANNELS 3 Zrotation Yrotation Xrotation
					JOINT lradius  
					{
						OFFSET 24.8459 0.0000 0.0000
						CHANNELS 3 Zrotation Yrotation Xrotation
						JOINT lhand    
						{
							OFFSET 24.5477 0.0000 0.0000
							CHANNELS 3 Zrotation Yrotation Xrotation
							End Site
							{
								OFFSET 8.1826 0.0000 0.0000
							}
						}
					}
				}
			}
			JOINT head     
			{
				OFFSET 0.0000 35.2030 0.0000
				CHANNELS 3 Zrotation Yrotation Xrotation
				End Site
				{
					OFFSET 0.0000 11.7343 0.0000
				}
			}
		}
		JOINT rfemur   
		{
			OFFSET -8.2817 0.0000 0.0000
			CHANNELS 3 Zrotation Yrotation Xrotation
			JOINT rtibia   
			{
				OFFSET 0.0000 -43.3627 0.0000
				CHANNELS 3 Zrotation Yrotation Xrotation
				JOINT rfoot    
				{
					OFFSET 0.0000 -38.2947 0.0000
					CHANNELS 3 Zrotation Yrotation Xrotation
					JOINT rtoes    
					{
						OFFSET 0.0000 0.0000 16.6054
						CHANNELS 3 Zrotation Yrotation Xrotation
						End Site
						{
							OFFSET 0.0000 0.0000 5.5351
						}
					}
				}
			}
		}
		JOINT lfemur   
		{
			OFFSET 8.2817 0.0000 0.0000
			CHANNELS 3 Zrotation Yrotation Xrotation
			JOINT ltibia   
			{
				OFFSET 0.0000 -43.3627 0.0000
				CHANNELS 3 Zrotation Yrotation Xrotation
				JOINT lfoot    
				{
					OFFSET 0.0000 -38.2947 0.0000
					CHANNELS 3 Zrotation Yrotation Xrotation
					JOINT ltoes    
					{
						OFFSET 0.0000 0.0000 16.6054
						CHANNELS 3 Zrotation Yrotation Xrotation
						End Site
						{
							OFFSET 0.0000 0.0000 5.5351
						}
					}
				}
			}
		}
	}
}
MOTION
Frames: 23
Frame Time: .0333333
-20.318 77.858 4.9969 -132.267 72.1936 -117.822 0 -0 0 2.28962 5.20923 19.3168 20.5867 -5.89739 -1.04835e-06 50.5041 3.56482 4.69113 -180 79.5727 -180 -12.1628 3.00706 -0.320403 -18.6972 18.098 4.67463e-05 -55.9862 31.8753 15.0506 0 -79.55 -0 4.33448 3.63686 0.137698 0.309696 8.49099 -9.90427 7.80002 -27.8394 -23.4365 -0 -0 65.7515 -1.49579e-05 18.7314 11.8183 3.97287 1.62078e-05 -86.7296 -16.3448 17.726 -54.8921 -0 -0 44.3789 -1.89308e-05 23.0284 -14.8336 173.789 -1.3417e-05 -15.4672 
-19.218 77.558 4.8371 -131.847 71.9487 -117.76 0 -0 0 1.74521 5.08326 19.2244 20.7921 -5.81303 -7.40397e-06 51.0358 3.18657 5.09833 -180 80.3573 -180 -11.6908 3.26209 -0.334086 -18.8852 17.8159 8.69937e-05 -56.0589 31.1406 14.3841 0 -78.913 -0 4.63118 3.72564 0.1507 0.57495 8.9169 -10.2588 7.20048 -27.5776 -23.3255 -0 -0 67.3719 -6.54946e-05 19.9519 14.0743 5.04513 -3.41024e-05 -87.5637 -15.39 17.4089 -54.7266 -0 -0 46.5173 0.000178715 23.6689 -15.9922 173.114 -3.93219e-05 -16.5183 
-18.14 77.266 4.6516 -131.668 71.7553 -117.941 0 -0 0 1.14848 4.95467 19.1792 20.9817 -5.70987 2.27796e-07 51.6157 2.77931 5.45735 -180 81.2352 -180 -11.206 3.53399 -0.346807 -19.0982 17.4688 -7.06236e-05 -55.998 30.223 13.8238 0 -78.1659 0 4.93594 3.84949 0.165998 0.802937 9.32075 -10.5676 6.54746 -27.2301 -23.3036 -0 -0 69.0155 -7.20208e-05 21.0919 16.4081 6.21836 -6.21086e-06 -87.9787 -14.5975 17.1475 -54.5191 -0 -0 48.6008 7.82428e-05 24.1837 -17.1434 172.459 -1.82581e-05 -16.9512 
-17.085 76.99 4.4417 -131.74 71.5944 -118.368 0 -0 0 0.524067 4.82124 19.1756 21.1541 -5.5921 8.29552e-06 52.236 2.34476 5.76182 -180 82.214 -180 -10.7212 3.81465 -0.358104 -19.3516 17.0392 2.8908e-05 -55.7976 29.1395 13.3566 -8.58606e-07 -77.3155 1.07336e-06 5.2553 4.01718 0.184394 0.980153 9.70166 -10.8073 5.87319 -26.795 -23.3732 -0 -0 70.655 6.65555e-06 22.0801 18.743 7.42646 4.51892e-05 -87.7848 -13.9744 16.9469 -54.2541 -0 -0 50.5522 -2.43197e-05 24.5757 -18.2876 171.834 4.98462e-05 -17.075 
-16.055 76.734 4.209 -132.074 71.4384 -119.047 0 -0 0 -0.101785 4.67641 19.2084 21.3085 -5.46624 -1.86249e-05 52.886 1.89215 6.01235 -180 83.307 -180 -10.2559 4.09234 -0.3674 -19.6403 16.5493 -1.58587e-05 -55.4583 27.8746 12.9941 1.42267e-06 -76.356 -1.11866e-06 5.60066 4.23616 0.207299 1.09431 10.0635 -10.9602 5.20767 -26.2744 -23.5303 -0 -0 72.2697 6.93124e-05 22.8442 20.9966 8.58355 1.89351e-05 -86.9116 -13.5101 16.803 -53.9171 -0 -0 52.3144 -0.000120981 24.8528 -19.3988 171.254 5.34466e-05 -16.8896 
-15.05 76.502 3.9552 -132.662 71.2746 -119.966 0 -0 0 -0.703225 4.51022 19.2694 21.4376 -5.33762 1.21242e-05 53.5587 1.43107 6.21359 -180 84.5375 -180 -9.82955 4.35313 -0.3745 -19.9629 16.0181 1.05151e-05 -54.9896 26.431 12.7341 -1.0277e-06 -75.303 1.33205e-06 5.9798 4.5127 0.235794 1.13492 10.4117 -11.0134 4.57927 -25.6784 -23.7733 -0 -0 73.8408 0.000136893 23.3061 23.0862 9.58789 -5.32163e-06 -85.3277 -13.1785 16.6998 -53.494 -0 -0 53.8504 -5.03236e-05 25.0301 -20.4621 170.729 -6.94562e-05 -16.4869 
-14.068 76.296 3.6818 -133.496 71.0756 -121.114 0 -0 0 -1.25684 4.31193 19.3525 21.5396 -5.20922 -3.49335e-05 54.2429 0.96922 6.37073 -180 85.8993 -180 -9.46177 4.58128 -0.379303 -20.323 15.4605 -0.000191807 -54.4111 24.8282 12.5512 0 -74.1798 -0 6.39608 4.85051 0.271204 1.09543 10.7522 -10.9578 4.01006 -25.0179 -24.1005 -0 -0 75.3613 -7.91931e-05 23.391 24.9344 10.3346 3.60035e-05 -83.0611 -12.9484 16.6153 -52.9796 -0 -0 55.1483 -0.00016656 25.1217 -21.4687 170.262 -1.42185e-05 -15.9454 
-13.109 76.116 3.3897 -134.555 70.8188 -122.468 0 -0 0 -1.74614 4.06909 19.4527 21.6051 -5.08706 -2.53376e-06 54.9319 0.52043 6.49624 -180 87.4046 -180 -9.17054 4.76078 -0.382008 -20.7091 14.9106 -0.000198367 -53.7516 23.0671 12.4339 -1.22886e-06 -73.0094 1.66047e-06 6.84982 5.24855 0.314305 0.973527 11.0912 -10.7949 3.51344 -24.3106 -24.5056 -0 -0 76.8245 0.000160063 23.0375 26.4826 10.7373 8.65395e-05 -80.3279 -12.7859 16.526 -52.3673 -0 -0 56.2064 9.27281e-05 25.1457 -22.4163 169.851 3.22048e-05 -15.4325 
-12.172 75.962 3.0805 -135.806 70.4888 -123.996 0 -0 0 -2.1567 3.77085 19.5641 21.631 -4.97915 -2.66402e-05 55.6166 0.100083 6.60366 -180 89.0896 -180 -8.97011 4.87523 -0.382604 -21.112 14.4021 2.31865e-05 -53.0453 21.151 12.362 0 -71.8182 -0 7.33603 5.69859 0.365603 0.770537 11.4329 -10.5321 3.10118 -23.5686 -24.9852 -0 -0 78.2212 -4.19939e-05 22.1998 27.6816 10.7348 -3.55692e-06 -77.3352 -12.6563 16.4037 -51.6653 -0 -0 57.0467 -0.000105897 25.1188 -23.3034 169.493 1.2848e-05 -15.0247 
-11.256 75.833 2.7531 -137.226 70.0773 -125.671 0 -0 0 -2.49121 3.41457 19.6757 21.6137 -4.8634 -2.17409e-05 56.2921 -0.320177 6.67922 -1.06944e-05 89.1018 -1.08631e-05 -8.8679 4.91218 -0.381092 -21.5459 13.8812 -0.000144598 -52.3188 19.2105 12.2331 0 -70.7129 -0 7.83962 6.19092 0.424604 0.497838 11.7753 -10.1741 2.76482 -22.8059 -25.5341 -0 -0 79.5453 -9.44802e-05 20.8655 28.4984 10.3079 3.46513e-05 -74.3046 -12.5395 16.2259 -50.8745 -0 -0 57.6872 -6.43038e-05 25.0527 -24.1258 169.184 3.66876e-05 -14.7581 
-10.36 75.728 2.4109 -138.763 69.5692 -127.441 0 -0 0 -2.74211 2.99295 19.7877 21.551 -4.76227 2.25211e-05 56.9453 -0.707044 6.74789 -4.38147e-06 87.1509 -4.16801e-06 -8.86861 4.85992 -0.377095 -21.9743 13.422 -0.00015467 -51.6242 17.1855 12.07 -9.93411e-07 -69.6824 1.42711e-06 8.3522 6.70181 0.489899 0.164573 12.1181 -9.74543 2.51325 -22.0303 -26.1494 -0 -0 80.7856 -0.000173605 19.0433 28.9197 9.47666 2.91177e-05 -71.4904 -12.4049 15.9694 -50.0142 -0 -0 58.1696 -3.77301e-06 24.9596 -24.8879 168.917 -5.42133e-05 -14.6964 
-9.4858 75.644 2.0546 -140.384 68.9617 -129.269 0 -0 0 -2.91743 2.50951 19.8918 21.4476 -4.66806 8.19529e-06 57.5701 -1.07487 6.80392 -6.24505e-06 85.0549 -6.49365e-06 -8.9676 4.71275 -0.369797 -22.3864 13.0036 2.60699e-05 -50.9943 15.1457 11.818 9.73974e-07 -68.7993 -6.6688e-07 8.85644 7.20715 0.558889 -0.212484 12.4538 -9.26399 2.33634 -21.2463 -26.8284 -0 -0 81.9283 -0.000263783 16.781 28.9387 8.30238 -3.36762e-05 -69.0066 -12.2421 15.6211 -49.0988 -0 -0 58.5229 -0.000224929 24.8477 -25.5906 168.689 -9.02615e-05 -14.8151 
-8.6326 75.581 1.686 -142.045 68.2564 -131.109 0 -0 0 -3.02563 1.97174 19.9872 21.3083 -4.58785 4.45132e-06 58.1604 -1.42157 6.84963 -2.22929e-06 82.8593 -1.96738e-06 -9.15221 4.46992 -0.357901 -22.765 12.6346 -1.68072e-05 -50.4607 13.1068 11.4636 -9.05856e-07 -68.0927 1.34066e-06 9.33259 7.68202 0.628004 -0.61582 12.7746 -8.75231 2.22413 -20.4595 -27.568 -0 -0 82.9629 0.00018751 14.1557 28.5634 6.87608 3.09283e-06 -66.8405 -12.0459 15.1728 -48.1513 -0 -0 58.7823 0.000213068 24.7164 -26.2329 168.499 8.15319e-05 -15.05 
-7.8011 75.538 1.3069 -143.73 67.4557 -132.941 0 -0 0 -3.07998 1.39068 20.0661 21.138 -4.50156 -4.25064e-06 58.7107 -1.78493 6.86612 -0 80.6103 -0 -9.41356 4.14245 -0.341207 -23.0899 12.2795 -5.64496e-05 -50.0537 11.1364 10.9734 0 -67.6128 0 9.76918 8.08801 0.692286 -1.02509 13.0666 -8.2283 2.16272 -19.6722 -28.3638 -0 -0 83.8689 4.01272e-05 11.2658 27.8191 5.31111 4.45005e-05 -64.9628 -11.8171 14.6239 -47.1875 -0 -0 58.9733 1.91616e-05 24.5674 -26.8237 168.344 4.90601e-05 -15.3785 
-6.9915 75.512 0.9189 -145.4 66.5661 -134.725 0 -0 0 -3.0908 0.783512 20.1347 20.952 -4.42907 8.35219e-06 59.2117 -2.15476 6.85793 -0 78.335 -0 -9.72534 3.74186 -0.318404 -23.3434 11.9603 -7.29478e-05 -49.7864 9.21033 10.3829 -6.15249e-07 -67.3676 9.23089e-07 10.1388 8.41041 0.747392 -1.42451 13.3204 -7.71292 2.13712 -18.8831 -29.2138 -0 -0 84.6359 -5.0124e-05 8.23171 26.7396 3.72425 -6.07862e-05 -63.1821 -11.5655 13.9894 -46.2253 -0 -0 59.1173 -0.000150482 24.3917 -27.3622 168.228 9.2064e-05 -15.6932 
-6.2034 75.505 0.5239 -147.042 65.6002 -136.449 0 -0 0 -3.06912 0.168381 20.1902 20.7605 -4.36987 1.30888e-05 59.66 -2.55198 6.81538 -7.73908e-07 76.0879 -9.88946e-07 -10.07 3.29137 -0.290101 -23.5135 11.6647 -4.44813e-05 -49.665 7.34194 9.71203 -8.70098e-07 -67.3676 1.30545e-06 10.4223 8.62919 0.788489 -1.79891 13.5253 -7.22037 2.13182 -18.0902 -30.1134 -0 -0 85.252 -1.82676e-05 5.17651 25.3796 2.22369 5.3489e-06 -61.3173 -11.3016 13.2876 -45.2776 -0 -0 59.2264 -7.91201e-05 24.1785 -27.8492 168.155 1.38312e-05 -15.9208 
-5.4357 75.515 0.1235 -148.637 64.5674 -138.091 0 -0 0 -3.0233 -0.434809 20.2379 20.5762 -4.32697 8.56449e-06 60.0501 -2.99502 6.73036 -0 73.922 -0 -10.4284 2.81864 -0.257308 -23.5912 11.3866 -2.12444e-05 -49.6863 5.53231 8.99986 -6.2343e-07 -67.6078 9.31138e-07 10.6008 8.7361 0.812084 -2.13705 13.6718 -6.76098 2.133 -17.2905 -31.0589 -0 -0 85.7112 2.60546e-06 2.21655 23.8039 0.894986 3.78358e-06 -59.2233 -11.0376 12.5464 -44.3503 -0 -0 59.3034 -0.000253503 23.9157 -28.2906 168.13 -9.46985e-06 -16.0155 
-4.6867 75.541 -0.2807 -150.174 63.4761 -139.645 0 -0 0 -2.9572 -1.00726 20.2781 20.4091 -4.30557 1.76793e-05 60.3763 -3.49978 6.59691 -0 71.874 -0 -10.7847 2.35294 -0.222101 -23.5773 11.1219 1.81788e-05 -49.8425 3.77468 8.29213 0 -68.0751 0 10.6601 8.73336 0.816402 -2.43255 13.7582 -6.34047 2.13081 -16.4816 -32.0463 -0 -0 86.0074 1.72384e-06 -0.548092 22.0789 -0.206001 -1.39252e-06 -56.7919 -10.7847 11.795 -43.4504 -0 -0 59.3497 9.46319e-05 23.5901 -28.6867 168.162 3.44233e-05 -15.9454 
-3.9542 75.585 -0.6874 -151.639 62.3392 -141.096 0 -0 0 -2.87118 -1.53299 20.3124 20.2696 -4.31242 -2.64308e-08 60.6367 -4.07919 6.41396 -7.15571e-07 69.9918 -1.02209e-06 -11.1289 1.92289 -0.187397 -23.4758 10.8638 -6.48563e-05 -50.1151 2.0657 7.63316 0 -68.7431 0 10.5932 8.63303 0.801803 -2.68325 13.7827 -5.96109 2.11738 -15.6567 -33.0698 -0 -0 86.1433 -2.12113e-05 -3.04106 20.2714 -1.0545 -5.39153e-06 -53.9845 -10.5492 11.0635 -42.5759 -0 -0 59.3589 0.000242691 23.1945 -29.0388 168.25 1.5581e-05 -15.6984 
-3.2355 75.645 -1.0957 -153.019 61.1683 -142.436 0 -0 0 -2.76269 -2.00063 20.3428 20.1627 -4.35142 1.77154e-06 60.8321 -4.74475 6.18091 -0 68.3189 -0 -11.4538 1.55288 -0.155796 -23.2934 10.6167 -8.10459e-05 -50.4885 0.389975 7.07107 0 -69.5818 0 10.4064 8.45208 0.771115 -2.89169 13.7522 -5.62254 2.09022 -14.8154 -34.1259 -0 -0 86.1199 1.79329e-05 -5.2115 18.4389 -1.65245 2.27984e-05 -50.8353 -10.3354 10.3814 -41.7228 -0 -0 59.3244 0.000297068 22.7227 -29.3471 168.401 -5.58473e-05 -15.2884 
-2.5276 75.721 -1.5051 -154.311 59.9673 -143.667 0 -0 0 -2.62679 -2.40502 20.3682 20.0913 -4.42638 1.33164e-05 60.9617 -5.50119 5.9022 -5.98981e-07 66.8745 -9.07097e-07 -11.7559 1.26018 -0.129698 -23.0414 10.3817 6.57298e-05 -50.9408 -1.25829 6.64086 1.04706e-06 -70.5622 -7.40822e-07 10.1154 8.21231 0.728102 -3.06271 13.6779 -5.32198 2.04929 -13.9562 -35.2096 -0 -0 85.9452 -1.92093e-05 -7.03331 16.6272 -2.02184 -1.61496e-05 -47.417 -10.1416 9.76992 -40.8876 -0 -0 59.2387 -3.66411e-05 22.1758 -29.6113 168.613 4.68427e-05 -14.7394 
-1.8274 75.812 -1.9157 -155.503 58.7462 -144.78 0 -0 0 -2.45742 -2.74688 20.3884 20.0557 -4.54285 6.02523e-06 61.0307 -6.34356 5.58901 -0 65.6823 -0 -12.0351 1.0527 -0.111 -22.7362 10.1507 -7.45295e-05 -51.4529 -2.86505 6.35665 0 -71.6561 -0 9.7435 7.93638 0.677486 -3.2044 13.5727 -5.05642 1.99718 -13.0831 -36.3155 -0 -0 85.6236 4.08536e-06 -8.50191 14.867 -2.19652 -8.48688e-06 -43.8289 -9.96475 9.24591 -40.0658 -0 -0 59.0992 2.85908e-05 21.5603 -29.8255 168.882 2.2036e-05 -14.0981 
-1.1322 75.917 -2.3282 -156.596 57.5094 -145.778 0 -0 0 -2.24973 -3.03369 20.4026 20.0532 -4.7024 -3.67238e-06 61.0432 -7.26212 5.25434 -5.35586e-07 64.7415 -8.44918e-07 -12.2907 0.9305 -0.100201 -22.3896 9.92484 -8.29668e-06 -52.0046 -4.42265 6.22666 -8.59549e-07 -72.8512 1.16481e-06 9.32018 7.64327 0.624007 -3.32476 13.4542 -4.82282 1.9371 -12.2021 -37.4388 -0 -0 85.1622 -3.7737e-05 -9.63162 13.1837 -2.21645 1.08168e-05 -40.1994 -9.79935 8.81809 -39.2552 -0 -0 58.9059 6.69054e-06 20.8867 -29.9899 169.201 1.43239e-05 -13.4113 
